<svg width="22" height="22" viewBox="0 0 22 22" fill="none" xmlns="http://www.w3.org/2000/svg">
<path d="M3.04656 11.927C3.36774 9.17492 3.83704 7.11135 4.27225 5.6453C4.62911 4.44318 4.80754 3.84213 5.53926 3.29606C6.27098 2.75 7.01889 2.75 8.5147 2.75H13.4854C14.9812 2.75 15.7291 2.75 16.4608 3.29606C17.1925 3.84213 17.3709 4.44318 17.7278 5.6453C18.163 7.11135 18.6323 9.17492 18.9535 11.927C19.332 15.1706 19.5212 16.7923 18.4275 18.0211C17.3337 19.25 15.5612 19.25 12.016 19.25H9.98397C6.43887 19.25 4.66631 19.25 3.57254 18.0211C2.47877 16.7923 2.66803 15.1706 3.04656 11.927Z" fill="white"/>
<path d="M8.25 6.41699C8.25 7.93577 9.48117 9.16699 11 9.16699C12.5188 9.16699 13.75 7.93577 13.75 6.41699" stroke="#3F85FE" stroke-width="1.5" stroke-linecap="round" stroke-linejoin="round"/>
</svg>
